<?xml version="1.0" encoding="UTF-8"?>
<!DOCTYPE svg PUBLIC "-//W3C//DTD SVG 1.1//EN" "http://www.w3.org/Graphics/SVG/1.1/DTD/svg11.dtd">
<!-- Creator: CorelDRAW X7 -->
<svg xmlns="http://www.w3.org/2000/svg" xml:space="preserve" width="400px" height="400px" version="1.1" style="shape-rendering:geometricPrecision; text-rendering:geometricPrecision; image-rendering:optimizeQuality; fill-rule:evenodd; clip-rule:evenodd"
viewBox="0 0 137 137"
 xmlns:xlink="http://www.w3.org/1999/xlink">
 <defs>
  <style type="text/css">
   <![CDATA[
    .fil0 {fill:#FEFEFE}
    .fil2 {fill:#FFCC29}
    .fil3 {fill:#FFCC29;fill-rule:nonzero}
    .fil4 {fill:#FEFEFE;fill-opacity:0.301961}
    .fil1 {fill:url(#id0)}
   ]]>
  </style>
  <linearGradient id="id0" gradientUnits="userSpaceOnUse" x1="68.4984" y1="33.2955" x2="68.4984" y2="103.701">
   <stop offset="0" style="stop-opacity:1; stop-color:#00AFEF"/>
   <stop offset="1" style="stop-opacity:1; stop-color:#0981B1"/>
  </linearGradient>
 </defs>
 <g id="Layer_x0020_1">
  <metadata id="CorelCorpID_0Corel-Layer"/>
  <circle class="fil0" cx="68" cy="68" r="68"/>
  <circle class="fil1" cx="68" cy="68" r="61"/>
  <g id="_1721351543696">
   <circle class="fil2" cx="68" cy="101" r="16"/>
   <polygon class="fil3" points="70,49 70,102 67,102 67,49 67,49 67,49 67,49 67,49 67,49 67,49 66,49 66,49 66,49 66,49 66,49 66,49 66,49 66,49 66,49 65,49 65,49 65,49 65,49 65,49 65,49 65,49 65,49 65,49 64,49 64,49 64,49 64,49 64,49 64,49 64,49 64,49 64,49 63,49 63,49 63,49 63,49 63,49 63,49 63,49 63,49 63,49 62,49 62,49 62,49 62,49 62,49 62,49 62,49 62,49 62,49 62,49 61,49 61,50 61,50 61,50 61,50 61,50 61,50 61,50 61,50 60,50 60,50 60,50 60,50 60,50 60,50 60,50 60,50 60,50 59,50 59,50 59,50 59,50 59,50 59,50 59,50 59,50 59,50 58,50 58,50 58,50 58,51 58,51 58,51 58,51 58,51 58,51 57,51 57,51 57,51 57,51 57,51 57,51 57,51 57,51 57,51 56,51 56,51 56,51 56,51 56,51 56,51 56,51 56,52 56,52 55,52 55,52 55,52 55,52 55,52 55,52 55,52 55,52 55,52 55,52 55,52 68,19 82,52 82,52 82,52 82,52 82,52 82,52 82,52 82,52 82,52 81,52 81,52 81,52 81,51 81,51 81,51 81,51 81,51 81,51 81,51 80,51 80,51 80,51 80,51 80,51 80,51 80,51 80,51 80,51 79,51 79,51 79,51 79,51 79,51 79,51 79,50 79,50 79,50 78,50 78,50 78,50 78,50 78,50 78,50 78,50 78,50 78,50 77,50 77,50 77,50 77,50 77,50 77,50 77,50 77,50 77,50 76,50 76,50 76,50 76,50 76,50 76,50 76,50 76,50 76,49 75,49 75,49 75,49 75,49 75,49 75,49 75,49 75,49 75,49 75,49 74,49 74,49 74,49 74,49 74,49 74,49 74,49 74,49 74,49 73,49 73,49 73,49 73,49 73,49 73,49 73,49 73,49 73,49 72,49 72,49 72,49 72,49 72,49 72,49 72,49 72,49 72,49 71,49 71,49 71,49 71,49 71,49 71,49 71,49 71,49 71,49 70,49 70,49 70,49 70,49 70,49 70,49 "/>
   <rect class="fil2" x="63" y="49" width="2.6217" height="30.0826"/>
   <rect class="fil2" x="59" y="49" width="2.6217" height="20.7612"/>
   <rect class="fil2" x="75" y="49" width="2.6217" height="20.7612"/>
   <rect class="fil2" x="71" y="49" width="2.6217" height="30.0826"/>
  </g>
  <path class="fil4" d="M68 8c34,0 61,27 61,60 0,1 0,2 0,2 -17,-12 -38,-19 -61,-19 -22,0 -43,7 -60,19 0,0 0,-1 0,-2 0,-33 27,-60 60,-60z"/>
 </g>
</svg>
