<?xml version="1.0" encoding="UTF-8"?>
<!DOCTYPE svg PUBLIC "-//W3C//DTD SVG 1.1//EN" "http://www.w3.org/Graphics/SVG/1.1/DTD/svg11.dtd">
<!-- Creator: CorelDRAW X7 -->
<svg xmlns="http://www.w3.org/2000/svg" xml:space="preserve" width="400px" height="400px" version="1.1" style="shape-rendering:geometricPrecision; text-rendering:geometricPrecision; image-rendering:optimizeQuality; fill-rule:evenodd; clip-rule:evenodd"
viewBox="0 0 70 70"
 xmlns:xlink="http://www.w3.org/1999/xlink">
 <defs>
  <style type="text/css">
   <![CDATA[
    .fil0 {fill:#FEFEFE}
    .fil3 {fill:#FFCC29}
    .fil2 {fill:#E5AD36}
    .fil4 {fill:#FEFEFE;fill-opacity:0.301961}
    .fil1 {fill:url(#id0)}
   ]]>
  </style>
  <linearGradient id="id0" gradientUnits="userSpaceOnUse" x1="35.0653" y1="17.0445" x2="35.0653" y2="53.0861">
   <stop offset="0" style="stop-opacity:1; stop-color:#00AFEF"/>
   <stop offset="1" style="stop-opacity:1; stop-color:#0981B1"/>
  </linearGradient>
 </defs>
 <g id="Layer_x0020_1">
  <metadata id="CorelCorpID_0Corel-Layer"/>
  <circle class="fil0" cx="35" cy="35" r="35"/>
  <circle class="fil1" cx="35" cy="35" r="31"/>
  <polygon class="fil2" points="35,20 39,35 50,45 35,41 20,45 32,35 "/>
  <circle class="fil3" cx="35" cy="20" r="8"/>
  <circle class="fil3" cx="50" cy="45" r="8"/>
  <circle class="fil3" cx="20" cy="45" r="8"/>
  <path class="fil4" d="M35 4c17,0 31,14 31,31 0,0 0,1 0,1 -8,-6 -19,-10 -31,-10 -12,0 -22,4 -31,10 0,0 0,-1 0,-1 0,-17 14,-31 31,-31z"/>
 </g>
</svg>
