<?xml version="1.0" encoding="UTF-8"?>
<!DOCTYPE svg PUBLIC "-//W3C//DTD SVG 1.1//EN" "http://www.w3.org/Graphics/SVG/1.1/DTD/svg11.dtd">
<!-- Creator: CorelDRAW X7 -->
<svg xmlns="http://www.w3.org/2000/svg" xml:space="preserve" width="400px" height="400px" version="1.1" style="shape-rendering:geometricPrecision; text-rendering:geometricPrecision; image-rendering:optimizeQuality; fill-rule:evenodd; clip-rule:evenodd"
viewBox="0 0 123 123"
 xmlns:xlink="http://www.w3.org/1999/xlink">
 <defs>
  <style type="text/css">
   <![CDATA[
    .fil0 {fill:#FEFEFE}
    .fil2 {fill:#ED3237}
    .fil3 {fill:#FEFEFE;fill-opacity:0.301961}
    .fil1 {fill:url(#id0)}
   ]]>
  </style>
  <linearGradient id="id0" gradientUnits="userSpaceOnUse" x1="61.47" y1="29.8792" x2="61.47" y2="93.0607">
   <stop offset="0" style="stop-opacity:1; stop-color:#00AFEF"/>
   <stop offset="1" style="stop-opacity:1; stop-color:#0981B1"/>
  </linearGradient>
 </defs>
 <g id="Layer_x0020_1">
  <metadata id="CorelCorpID_0Corel-Layer"/>
  <circle class="fil0" cx="61" cy="61" r="61"/>
  <circle class="fil1" cx="61" cy="61" r="54"/>
  <rect class="fil2" x="28" y="55" width="67.514" height="13.5351" rx="8" ry="7"/>
  <rect class="fil2" transform="matrix(2.48675E-014 0.938944 -0.789436 2.09079E-014 68.237 27.7124)" width="71.9042" height="17.1452" rx="9" ry="9"/>
  <path class="fil3" d="M61 7c31,0 55,24 55,54 0,1 0,2 0,2 -15,-11 -34,-17 -55,-17 -20,0 -39,6 -54,17 0,0 0,-1 0,-2 0,-30 24,-54 54,-54z"/>
 </g>
</svg>
