<?xml version="1.0" encoding="UTF-8"?>
<!DOCTYPE svg PUBLIC "-//W3C//DTD SVG 1.1//EN" "http://www.w3.org/Graphics/SVG/1.1/DTD/svg11.dtd">
<!-- Creator: CorelDRAW X7 -->
<svg xmlns="http://www.w3.org/2000/svg" xml:space="preserve" width="300px" height="600px" version="1.1" style="shape-rendering:geometricPrecision; text-rendering:geometricPrecision; image-rendering:optimizeQuality; fill-rule:evenodd; clip-rule:evenodd"
viewBox="0 0 17 34"
 xmlns:xlink="http://www.w3.org/1999/xlink">
 <defs>
  <style type="text/css">
   <![CDATA[
    .fil3 {fill:#FEFEFE}
    .fil2 {fill:#E6E7E8}
    .fil0 {fill:#ED3237}
    .fil4 {fill:#E73338}
    .fil1 {fill:#CA3438}
   ]]>
  </style>
 </defs>
 <g id="Layer_x0020_1">
  <metadata id="CorelCorpID_0Corel-Layer"/>
  <rect class="fil0" transform="matrix(-0.378946 0.108646 -0 0.271458 16.8595 -1.70862E-005)" width="17.7961" height="33.8127"/>
  <polygon class="fil1" points="10,8 10,11 17,9 17,7 "/>
  <rect class="fil0" transform="matrix(0.378946 0.108646 -0 0.271458 -5.84466E-005 -1.70862E-005)" width="17.7961" height="33.8127"/>
  <rect class="fil2" x="1" y="7" width="14.6113" height="27.0687" rx="7" ry="7"/>
  <polygon class="fil1" points="7,8 7,11 0,9 0,7 "/>
  <rect class="fil3" x="1" y="7" width="14.6113" height="23.6945" rx="7" ry="6"/>
  <rect class="fil4" x="8" width="1.12403" height="11.2397"/>
  <rect class="fil1" x="8" y="8" width="1.12403" height="3.1403"/>
  <path class="fil0" d="M16 15l0 4c0,4 -4,7 -8,7l0 0c-4,0 -7,-3 -7,-7l0 -4c0,5 3,8 7,8l0 0c4,0 8,-3 8,-8z"/>
 </g>
</svg>
