<?xml version="1.0" encoding="UTF-8"?>
<!DOCTYPE svg PUBLIC "-//W3C//DTD SVG 1.1//EN" "http://www.w3.org/Graphics/SVG/1.1/DTD/svg11.dtd">
<!-- Creator: CorelDRAW X7 -->
<svg xmlns="http://www.w3.org/2000/svg" xml:space="preserve" width="3000px" height="289px" version="1.1" style="shape-rendering:geometricPrecision; text-rendering:geometricPrecision; image-rendering:optimizeQuality; fill-rule:evenodd; clip-rule:evenodd"
viewBox="0 0 2837 269"
 xmlns:xlink="http://www.w3.org/1999/xlink">
 <defs>
  <style type="text/css">
   <![CDATA[
    .fil0 {fill:#6C9048}
    .fil4 {fill:#7E4A36}
    .fil2 {fill:#8DC63F}
    .fil3 {fill:#A97C50}
    .fil1 {fill:#C49A6C}
   ]]>
  </style>
 </defs>
 <g id="Layer_x0020_1">
  <metadata id="CorelCorpID_0Corel-Layer"/>
  <path class="fil0" d="M2827 83c0,-1 0,-1 0,-1 0,0 0,0 1,1l-1 0zm-946 0c0,-1 0,-1 0,-1 0,0 1,0 1,1l-1 0zm933 -56c0,0 -3,15 -3,27 -6,-6 -12,-9 -12,-9 0,0 -6,6 -12,14 0,-12 -4,-22 -4,-22 0,0 -25,0 -38,13 2,-5 3,-10 3,-15 -2,-21 -28,-35 -28,-35 0,0 -14,12 -18,28 -3,-15 -13,-27 -13,-27 0,0 -27,10 -33,29 -1,5 -1,9 -1,14 -13,-15 -39,-14 -39,-14 0,0 -5,15 -3,29 -9,-15 -28,-23 -28,-23 0,0 -5,6 -9,15 -1,-8 -3,-14 -3,-14 0,0 -26,0 -39,13 2,-5 3,-10 3,-15 -2,-21 -27,-35 -27,-35 0,0 -15,12 -19,28 -3,-15 -13,-27 -13,-27 0,0 -21,8 -30,23 -11,-9 -26,-13 -26,-13 0,0 -14,21 -9,40 -10,-10 -22,-15 -22,-15 0,0 -8,10 -13,21 0,-11 -3,-20 -3,-20 0,0 -22,0 -36,11 0,-3 0,-5 0,-8 -5,-20 -32,-31 -32,-31 0,0 -14,16 -15,33 -8,-6 -16,-10 -16,-10 0,0 -17,19 -16,37 -8,2 -21,5 -29,13 2,-5 3,-10 3,-16 -2,-20 -28,-34 -28,-34 0,0 -14,12 -18,27 -3,-14 -13,-26 -13,-26 0,0 -19,6 -28,20 0,-5 0,-11 -2,-16 -8,-19 -36,-26 -36,-26 0,0 -14,21 -9,40 -10,-10 -22,-15 -22,-15 0,0 -8,10 -12,21 -1,-11 -4,-20 -4,-20 0,0 -25,0 -38,13 2,-5 3,-10 2,-15 -2,-21 -27,-35 -27,-35 0,0 -14,12 -19,28 -2,-15 -12,-27 -12,-27 0,0 -28,10 -33,29 -2,6 -2,11 -1,17l-1 0c0,0 0,-1 -1,-1 -12,-17 -63,-19 -63,-19 0,0 -4,15 -3,27 -7,-6 -12,-9 -12,-9 0,0 -7,6 -13,14 0,-12 -3,-22 -3,-22 0,0 -25,0 -38,13 2,-5 3,-10 2,-15 -2,-21 -27,-35 -27,-35 0,0 -14,12 -19,28 -3,-15 -12,-27 -12,-27 0,0 -28,10 -34,29 -1,5 -1,9 0,14 -13,-15 -40,-14 -40,-14 0,0 -5,15 -2,29 -9,-15 -28,-23 -28,-23 0,0 -6,6 -10,15 -1,-8 -3,-14 -3,-14 0,0 -25,0 -38,13 2,-5 3,-10 2,-15 -2,-21 -27,-35 -27,-35 0,0 -14,12 -19,28 -3,-15 -12,-27 -12,-27 0,0 -22,8 -31,23 -11,-9 -25,-13 -25,-13 0,0 -15,21 -10,40 -9,-10 -21,-15 -21,-15 0,0 -9,10 -13,21 -1,-11 -4,-20 -4,-20 0,0 -22,0 -35,11 0,-3 0,-5 -1,-8 -4,-20 -31,-31 -31,-31 0,0 -14,16 -16,33 -8,-6 -16,-10 -16,-10 0,0 -16,19 -15,37 -9,2 -21,5 -29,13 2,-5 3,-10 2,-16 -2,-20 -27,-34 -27,-34 0,0 -14,12 -19,27 -3,-14 -12,-26 -12,-26 0,0 -19,6 -29,20 1,-5 0,-11 -2,-16 -7,-19 -35,-26 -35,-26 0,0 -14,21 -10,40 -9,-10 -21,-15 -21,-15 0,0 -8,10 -13,21 0,-11 -3,-20 -3,-20 0,0 -26,0 -39,13 2,-5 3,-10 3,-15 -2,-21 -28,-35 -28,-35 0,0 -14,12 -18,28 -3,-15 -13,-27 -13,-27 0,0 -27,10 -33,29 -2,6 -1,11 0,17l-1 0c0,0 -1,-1 -1,-1 -12,-17 -64,-19 -64,-19 0,0 -3,15 -3,27 -6,-6 -12,-9 -12,-9 0,0 -7,6 -12,14 0,-12 -4,-22 -4,-22 0,0 -25,0 -38,13 2,-5 3,-10 3,-15 -2,-21 -28,-35 -28,-35 0,0 -14,12 -18,28 -3,-15 -13,-27 -13,-27 0,0 -27,10 -33,29 -1,5 -1,9 -1,14 -13,-15 -39,-14 -39,-14 0,0 -5,15 -3,29 -9,-15 -28,-23 -28,-23 0,0 -5,6 -10,15 -1,-8 -3,-14 -3,-14 0,0 -25,0 -38,13 2,-5 3,-10 3,-15 -2,-21 -28,-35 -28,-35 0,0 -14,12 -18,28 -3,-15 -13,-27 -13,-27 0,0 -21,8 -30,23 -11,-9 -26,-13 -26,-13 0,0 -14,21 -10,40 -9,-10 -21,-15 -21,-15 0,0 -8,10 -13,21 0,-11 -3,-20 -3,-20 0,0 -22,0 -36,11 0,-3 0,-5 -1,-8 -4,-20 -31,-31 -31,-31 0,0 -14,16 -15,33 -8,-6 -16,-10 -16,-10 0,0 -17,19 -16,37 -8,2 -21,5 -29,13 2,-5 3,-10 3,-16 -2,-20 -28,-34 -28,-34 0,0 -14,12 -18,27 -3,-14 -13,-26 -13,-26 0,0 -19,6 -28,20 0,-5 0,-11 -2,-16 -8,-19 -36,-26 -36,-26 0,0 -14,21 -9,40 -10,-10 -22,-15 -22,-15 0,0 -8,10 -13,21 0,-11 -3,-20 -3,-20 0,0 -25,0 -38,13 2,-5 3,-10 2,-15 -2,-21 -27,-35 -27,-35 0,0 -14,12 -19,28 -3,-15 -12,-27 -12,-27 0,0 -28,10 -33,29 -2,6 -2,11 -1,17l-1 0c0,0 0,-1 -1,-1 -12,-17 -41,-16 -41,-16l0 0 0 38 0 56 2836 0 0 -38 0 -56c-11,-3 -22,-3 -22,-3z"/>
  <polygon class="fil1" points="945,73 821,73 0,73 0,269 821,269 945,269 2837,269 2837,73 "/>
  <polygon class="fil2" points="945,103 945,103 945,102 "/>
  <polygon class="fil2" points="1891,103 1891,103 1891,102 "/>
  <path class="fil3" d="M1891 73l-18 0 -928 0 -10 0 -935 0 0 143c7,0 14,2 21,2 21,1 43,0 62,-11 20,-12 22,-37 50,-36 19,1 34,15 51,21 21,7 43,8 62,-3 15,-10 24,-28 44,-32 17,-3 23,23 43,24 41,1 60,-16 72,-22 27,-14 50,-19 74,-10 31,13 4,62 37,58 44,-4 72,-55 105,-56 40,-2 51,17 79,25 26,7 33,-13 59,-4 21,6 39,29 62,29 14,0 17,-12 64,-8 20,2 15,22 60,24 7,0 15,1 22,1 20,1 43,0 62,-11 20,-12 22,-37 50,-36 19,1 33,15 51,21 21,7 43,8 62,-3 15,-10 24,-28 43,-32 18,-3 24,23 44,24 41,1 60,-16 72,-22 27,-14 49,-19 74,-10 31,13 4,62 37,58 43,-4 72,-55 105,-56 39,-2 51,17 79,25 26,7 33,-13 59,-4 21,6 38,29 62,29 14,0 17,-12 63,-8 21,2 16,22 61,24l0 -1c7,1 16,2 21,2 21,1 44,0 63,-11 20,-12 22,-37 50,-36 19,1 33,15 51,21 21,7 43,8 61,-3 16,-10 24,-28 44,-32 18,-3 24,23 44,24 41,1 59,-16 71,-22 27,-14 50,-19 75,-10 31,13 4,62 36,58 44,-4 72,-55 106,-56 39,-2 51,17 78,25 27,7 33,-13 60,-4 21,6 38,29 62,29 13,0 17,-12 63,-8 21,2 16,22 61,24l0 -144 -946 0z"/>
  <polygon class="fil4" points="0,73 0,115 2837,115 2837,73 "/>
  <path class="fil3" d="M463 221c-14,20 -37,28 -51,18 -15,-10 -15,-34 -1,-54 13,-20 36,-28 50,-18 15,10 15,34 2,54z"/>
  <path class="fil3" d="M164 201c13,15 14,35 2,45 -12,10 -32,6 -44,-10 -13,-15 -14,-35 -2,-45 12,-10 32,-6 44,10z"/>
  <path class="fil3" d="M220 226c7,9 7,19 1,25 -6,5 -17,3 -24,-5 -7,-8 -7,-19 -1,-25 7,-5 17,-3 24,5z"/>
  <path class="fil3" d="M382 233c-5,9 -15,13 -23,9 -7,-4 -8,-15 -3,-24 5,-9 15,-13 23,-9 7,4 8,15 3,24z"/>
  <path class="fil3" d="M648 251c-5,9 -15,13 -23,9 -7,-4 -8,-15 -3,-24 5,-9 15,-13 23,-9 7,4 8,15 3,24z"/>
  <path class="fil3" d="M636 203c-9,12 -25,16 -35,9 -9,-8 -9,-24 0,-37 10,-12 26,-16 35,-9 10,8 10,24 0,37z"/>
  <path class="fil3" d="M775 198c14,13 18,31 9,42 -10,12 -29,11 -43,-1 -14,-13 -18,-31 -9,-43 10,-11 29,-10 43,2z"/>
  <path class="fil3" d="M839 225c9,7 12,19 6,26 -6,7 -19,7 -28,-1 -9,-8 -11,-20 -5,-27 6,-7 18,-6 27,2z"/>
  <path class="fil3" d="M1408 221c-13,20 -36,28 -51,18 -14,-10 -14,-34 -1,-54 14,-20 37,-28 51,-18 15,10 15,34 1,54z"/>
  <path class="fil3" d="M1110 201c13,15 14,35 2,45 -12,10 -32,6 -44,-10 -13,-15 -14,-35 -2,-45 12,-10 31,-6 44,10z"/>
  <path class="fil3" d="M1166 226c7,9 7,19 1,25 -7,5 -17,3 -24,-5 -7,-8 -7,-19 -1,-25 6,-5 17,-3 24,5z"/>
  <path class="fil3" d="M1328 233c-5,9 -16,13 -23,9 -7,-4 -8,-15 -3,-24 5,-9 15,-13 22,-9 8,4 9,15 4,24z"/>
  <path class="fil3" d="M1594 251c-5,9 -16,13 -23,9 -7,-4 -8,-15 -3,-24 5,-9 15,-13 22,-9 8,4 9,15 4,24z"/>
  <path class="fil3" d="M1582 203c-9,12 -25,16 -35,9 -10,-8 -10,-24 0,-37 10,-12 25,-16 35,-9 10,8 10,24 0,37z"/>
  <path class="fil3" d="M1721 198c14,13 18,31 9,42 -10,12 -29,11 -43,-1 -15,-13 -18,-31 -9,-43 9,-11 29,-10 43,2z"/>
  <path class="fil3" d="M1785 225c9,7 11,19 5,26 -6,7 -18,7 -27,-1 -9,-8 -11,-20 -5,-27 6,-7 18,-6 27,2z"/>
  <path class="fil3" d="M2354 221c-14,20 -36,28 -51,18 -14,-10 -15,-34 -1,-54 14,-20 37,-28 51,-18 14,10 15,34 1,54z"/>
  <path class="fil3" d="M2056 201c13,15 14,35 2,45 -12,10 -32,6 -45,-10 -12,-15 -13,-35 -1,-45 11,-10 31,-6 44,10z"/>
  <path class="fil3" d="M2112 226c7,9 7,19 1,25 -7,5 -17,3 -24,-5 -7,-8 -8,-19 -1,-25 6,-5 17,-3 24,5z"/>
  <path class="fil3" d="M2274 233c-6,9 -16,13 -23,9 -7,-4 -9,-15 -3,-24 5,-9 15,-13 22,-9 7,4 9,15 4,24z"/>
  <path class="fil3" d="M2540 251c-6,9 -16,13 -23,9 -7,-4 -9,-15 -3,-24 5,-9 15,-13 22,-9 7,4 9,15 4,24z"/>
  <path class="fil3" d="M2528 203c-10,12 -25,16 -35,9 -10,-8 -10,-24 0,-37 10,-12 25,-16 35,-9 10,8 10,24 0,37z"/>
  <path class="fil3" d="M2667 198c14,13 18,31 8,42 -9,12 -28,11 -43,-1 -14,-13 -18,-31 -8,-43 9,-11 28,-10 43,2z"/>
  <path class="fil3" d="M2731 225c9,7 11,19 5,26 -6,7 -18,7 -27,-1 -9,-8 -11,-20 -5,-27 6,-7 18,-6 27,2z"/>
 </g>
</svg>
