<?xml version="1.0" encoding="UTF-8"?>
<!DOCTYPE svg PUBLIC "-//W3C//DTD SVG 1.1//EN" "http://www.w3.org/Graphics/SVG/1.1/DTD/svg11.dtd">
<!-- Creator: CorelDRAW X7 -->
<svg xmlns="http://www.w3.org/2000/svg" xml:space="preserve" width="3000px" height="3000px" version="1.1" style="shape-rendering:geometricPrecision; text-rendering:geometricPrecision; image-rendering:optimizeQuality; fill-rule:evenodd; clip-rule:evenodd"
viewBox="0 0 3117 3117"
 xmlns:xlink="http://www.w3.org/1999/xlink">
 <defs>
  <style type="text/css">
   <![CDATA[
    .fil4 {fill:#EFF8F8}
    .fil10 {fill:#EFF8F8}
    .fil11 {fill:#E0F2F2}
    .fil6 {fill:#A7C855}
    .fil2 {fill:#90D5E1}
    .fil7 {fill:#9AB452}
    .fil8 {fill:#91AD4A}
    .fil9 {fill:#8EA849}
    .fil3 {fill:#73CCD6}
    .fil1 {fill:#73CCD6}
    .fil0 {fill:#5CC6D0}
    .fil5 {fill:#6C9048}
   ]]>
  </style>
 </defs>
 <g id="Layer_x0020_1">
  <metadata id="CorelCorpID_0Corel-Layer"/>
  <polygon class="fil0" points="3117,3117 0,3117 0,0 3117,0 "/>
  <path class="fil1" d="M0 1466c239,132 497,229 764,287 -246,-75 -456,-241 -622,-437 -51,-60 -98,-123 -142,-187l0 337zm0 291c389,168 823,231 1243,174 -442,-18 -891,-177 -1243,-448l0 274z"/>
  <path class="fil1" d="M2693 1647c150,-86 290,-187 424,-297l0 -295c-399,438 -934,754 -1513,883 381,18 759,-101 1089,-291z"/>
  <path class="fil2" d="M3117 2080c-25,13 -49,26 -74,38 25,-1 49,-2 74,-4l0 -34z"/>
  <path class="fil3" d="M3117 1492c-156,136 -332,250 -518,340 -406,196 -859,283 -1310,306 611,115 1253,41 1828,-196l0 -450z"/>
  <polygon class="fil3" points="3117,2129 0,2666 0,2688 3117,2318 "/>
  <polygon class="fil3" points="3117,2299 0,2835 0,2849 3117,2479 "/>
  <polygon class="fil3" points="3117,2469 0,3005 0,3011 3117,2640 "/>
  <polygon class="fil3" points="3117,2638 336,3117 466,3117 3117,2802 "/>
  <polygon class="fil2" points="3117,2808 1322,3117 1823,3117 3117,2963 "/>
  <polygon class="fil2" points="3117,2978 2309,3117 3117,3117 "/>
  <path class="fil4" d="M3117 2566c-68,42 -93,102 -112,181 -41,-30 -96,-41 -144,-27 -49,14 -99,42 -117,89 -18,-32 -54,-54 -90,-56 -37,-1 -75,24 -95,55 -20,-63 -107,-110 -162,-73 -31,-47 -86,-78 -143,-78 -56,-1 -124,1 -156,47 -29,-49 -82,-83 -138,-88 -56,-6 -130,1 -168,43 -55,-32 -125,-39 -185,-18 -60,21 -107,44 -130,104 -29,-35 -74,-54 -119,-51 -44,3 -80,18 -103,56 -50,-71 -157,-98 -223,-41 -4,-39 -28,-75 -62,-94 -34,-19 -103,-13 -138,4 -57,-93 -183,-128 -288,-99 -106,29 -171,83 -227,177 -62,-52 -151,-70 -229,-48 -32,10 -62,26 -88,48l0 420 3117 0 0 -551z"/>
  <path class="fil5" d="M310 3117c278,-128 661,-207 1085,-207 424,0 808,79 1086,207l-2171 0z"/>
  <path class="fil6" d="M2588 3117c149,-69 329,-124 529,-159l0 159 -529 0z"/>
  <path class="fil7" d="M0 2817c51,-3 102,-4 154,-4 522,0 983,120 1261,304l-1415 0 0 -300z"/>
  <path class="fil8" d="M322 2817c-29,-1 -59,-2 -89,-3 130,92 253,193 369,303l5 0c-93,-102 -188,-201 -285,-300z"/>
  <path class="fil8" d="M803 3117c-83,-96 -168,-189 -256,-280 -38,-5 -76,-9 -115,-12 119,87 229,186 333,292l38 0z"/>
  <path class="fil9" d="M1022 3117c-64,-79 -130,-157 -198,-233 -62,-14 -127,-26 -194,-36 107,86 212,175 313,269l79 0z"/>
  <path class="fil8" d="M433 3117c-95,-104 -191,-205 -290,-304 -42,0 -84,1 -125,3 127,95 250,195 369,301l46 0z"/>
  <polygon class="fil8" points="0,2935 185,3117 221,3117 0,2872 "/>
  <path class="fil8" d="M917 2907c75,67 146,137 215,210l5 0c-46,-62 -91,-123 -135,-186 -27,-9 -56,-17 -85,-24z"/>
  <path class="fil9" d="M1139 3117c278,-184 739,-304 1261,-304 259,0 503,30 717,82l0 222 -1978 0z"/>
  <path class="fil7" d="M2933 2986c-78,-57 -159,-110 -241,-160 -95,-8 -192,-13 -292,-13 -135,0 -265,8 -389,23 220,78 434,172 641,281l446 0c-53,-47 -108,-90 -165,-131z"/>
  <path class="fil7" d="M2239 3117c-130,-91 -264,-178 -403,-255 -198,36 -377,91 -525,160 112,28 223,60 332,95l596 0z"/>
  <path class="fil10" d="M3117 1751c-8,2 -15,6 -22,13 18,-55 -1,-118 -40,-161 -39,-42 -95,-67 -152,-77 -86,-15 -181,3 -245,62 -64,59 -95,158 -50,232 -62,-37 -150,-19 -193,38 -43,58 -38,142 14,190 -49,-10 -104,20 -123,67 -18,48 24,98 67,124 83,48 163,61 268,44 100,61 208,65 307,4 54,28 111,47 169,49l0 -585z"/>
  <path class="fil11" d="M3117 1751c-8,2 -15,6 -22,13 18,-55 -1,-118 -40,-161 -6,-6 -13,-12 -19,-18 24,43 30,96 13,143 -23,-16 -50,-19 -78,-14 -28,6 -53,24 -67,48 27,-26 73,-30 106,-11 -21,10 -42,30 -52,52 45,-30 110,-36 159,-13l0 -39zm0 47c-28,11 -52,36 -65,63 19,-14 42,-24 65,-28l0 -35z"/>
  <path class="fil11" d="M3117 2266c-58,-7 -112,-39 -147,-86 -46,35 -98,67 -156,74 -58,8 -127,-3 -157,-53 -40,47 -72,61 -128,88 32,1 69,5 112,-6 100,61 208,65 307,4 54,28 111,47 169,49l0 -70z"/>
  <path class="fil11" d="M2653 1916c-35,-3 -75,25 -92,56 -36,-10 -78,15 -90,51 -40,-40 -63,-96 -64,-153 -34,57 -27,133 22,178 -49,-10 -104,20 -123,67 0,1 0,1 0,2 8,-4 17,-7 27,-8 31,-6 65,1 91,21 7,-27 25,-51 49,-64 24,-13 57,-23 83,-14 27,-40 93,-55 135,-30 -11,-33 -47,-64 -80,-57 35,-26 94,-25 121,10 -12,-33 -44,-57 -79,-59z"/>
  <path class="fil3" d="M0 2445c344,21 690,-8 1025,-87 -340,32 -691,3 -1025,-76l0 163zm0 -177c252,28 511,15 761,-20 -254,13 -511,-7 -761,-59l0 79z"/>
  <path class="fil11" d="M768 2672c22,-26 62,-18 90,1 -41,9 -80,55 -93,94 36,-57 103,-71 166,-49 36,-7 74,30 78,66 23,-43 59,-66 105,-80 25,-8 53,-10 79,-7 -52,-27 -116,-27 -161,12 -4,-39 -28,-75 -62,-94 -34,-19 -103,-13 -138,4 -25,-41 -64,-70 -108,-88 26,27 44,62 51,99 -35,-5 -82,29 -96,62 25,-21 57,-26 89,-20z"/>
  <path class="fil11" d="M1607 2641c-4,1 -9,3 -13,5 83,-7 169,19 231,76 28,-56 96,-94 157,-81 -31,21 -55,56 -62,94 18,-35 53,-60 91,-65 37,18 62,58 71,97 17,-46 51,-83 93,-106 -31,6 -59,18 -77,43 -29,-49 -82,-83 -138,-88 -56,-6 -130,1 -168,43 -55,-32 -125,-39 -185,-18z"/>
  <path class="fil11" d="M3117 2566c-68,42 -93,102 -112,181 -41,-30 -96,-41 -144,-27 -2,1 -4,1 -7,2 60,5 118,30 163,71 2,-49 23,-80 58,-114 13,-12 27,-22 42,-30l0 -83z"/>
  <path class="fil10" d="M0 2043c464,129 959,146 1433,48 -149,25 -312,19 -461,-7 -5,-55 -36,-107 -82,-138 -46,-31 -94,-37 -147,-22 -5,-75 -58,-144 -130,-168 -71,-23 -147,-9 -195,49 -2,-33 -24,-63 -55,-75 -30,-12 -55,-12 -78,11 -13,-57 -80,-108 -130,-80 -13,-97 -72,-186 -155,-237l0 619z"/>
  <path class="fil11" d="M141 1789c-30,4 -62,35 -70,64 39,-33 106,-38 150,-10 -3,-21 -28,-33 -49,-34 39,-26 98,-30 133,2 -15,-16 -35,-32 -56,-38 35,-9 79,-2 105,24 -6,-13 -11,-26 -17,-39 29,-2 55,6 76,24 -8,-23 -27,-43 -50,-52 -30,-12 -55,-12 -78,11 -13,-57 -80,-108 -130,-80 -9,-65 -38,-126 -81,-175 31,81 47,169 43,255 -23,-25 -70,-18 -100,0 44,-9 92,18 124,48z"/>
  <path class="fil11" d="M873 2045c3,-22 15,-35 36,-43 10,-4 21,-6 32,-5 -14,-20 -31,-38 -51,-51 -46,-31 -94,-37 -147,-22 -4,-71 -53,-137 -118,-163 3,3 6,7 9,11 27,33 39,77 34,119 -44,-24 -110,-10 -143,28 38,-18 88,-10 124,13 -50,8 -109,48 -133,93 45,-34 101,-40 157,-31 16,-22 33,-30 60,-29 27,0 53,14 68,36 -39,-6 -85,31 -93,70 40,-47 112,-57 165,-26z"/>
  <path class="fil10" d="M3086 609c-81,33 -143,110 -157,196 -15,86 18,179 84,236 -62,40 -72,141 -45,210 24,59 85,100 149,102l0 -757c-9,4 -19,9 -31,13z"/>
  <path class="fil11" d="M3117 1198c-12,-16 -21,-34 -25,-54 7,-9 16,-18 25,-26l0 -195c-20,9 -37,21 -49,36 -57,-67 -95,-150 -109,-238 -15,26 -25,54 -30,84 -15,86 18,179 84,236 -62,40 -72,141 -45,210 24,59 85,100 149,102l0 -155z"/>
  <path class="fil10" d="M75 783c50,7 96,42 116,88 20,47 14,104 -15,145 40,15 60,70 55,113 -6,42 -44,77 -87,80 -12,40 -62,75 -103,69 -11,13 -25,23 -41,32l0 -546c32,9 37,14 75,19z"/>
  <path class="fil11" d="M0 1284c3,-2 6,-4 9,-6 19,-14 40,-29 60,-40 -16,-15 -43,-24 -64,-26 25,-6 46,-15 72,-14 -15,-26 -46,-45 -77,-49l0 -13c12,-3 25,-5 38,-3 23,4 38,14 51,33 35,-11 58,-44 57,-81 -37,-28 -101,-40 -146,-23l0 -11c26,-27 68,-42 103,-32 -24,-22 -65,-32 -96,-20 13,-19 34,-32 57,-35 23,-4 52,0 70,14 23,-46 33,-98 28,-149 12,12 22,27 29,42 20,47 14,104 -15,145 40,15 60,70 55,113 -6,42 -44,77 -87,80 -12,40 -62,75 -103,69 -11,13 -25,23 -41,32l0 -26z"/>
  <path class="fil10" d="M0 2405c43,15 88,24 133,29 115,11 233,-6 341,-48 9,-20 2,-46 -16,-60 -18,-14 -37,-19 -54,-5 -1,-24 -15,-47 -35,-59 -21,-11 -42,-19 -63,-8 0,-18 -10,-35 -25,-44 -15,-9 -36,-14 -51,-6 -13,-18 -36,-29 -58,-29 -23,0 -41,12 -53,31 -16,-36 -46,-65 -82,-79 -12,-4 -24,-7 -37,-9l0 287z"/>
 </g>
</svg>
